<svg xmlns="http://www.w3.org/2000/svg" xmlns:xlink="http://www.w3.org/1999/xlink" width="500" zoomAndPan="magnify" viewBox="0 0 375 374.999991" height="500" preserveAspectRatio="xMidYMid meet" version="1.0"><defs><g/><clipPath id="9bd17d7009"><path d="M 180 168 L 251 168 L 251 213 L 180 213 Z M 180 168 " clip-rule="nonzero"/></clipPath><clipPath id="df690c944d"><path d="M 236.5 124.21875 L 271.175781 251.957031 L 138.578125 287.949219 L 103.902344 160.210938 Z M 236.5 124.21875 " clip-rule="nonzero"/></clipPath><clipPath id="8fcfaabd77"><path d="M 236.5 124.21875 L 271.175781 251.957031 L 138.578125 287.949219 L 103.902344 160.210938 Z M 236.5 124.21875 " clip-rule="nonzero"/></clipPath><clipPath id="64b5ef218a"><path d="M 164 155 L 216 155 L 216 227 L 164 227 Z M 164 155 " clip-rule="nonzero"/></clipPath><clipPath id="7d833d68e9"><path d="M 236.5 124.21875 L 271.175781 251.957031 L 138.578125 287.949219 L 103.902344 160.210938 Z M 236.5 124.21875 " clip-rule="nonzero"/></clipPath><clipPath id="50e4e2298e"><path d="M 236.5 124.21875 L 271.175781 251.957031 L 138.578125 287.949219 L 103.902344 160.210938 Z M 236.5 124.21875 " clip-rule="nonzero"/></clipPath><clipPath id="19a46cb746"><path d="M 137 139 L 207 139 L 207 234 L 137 234 Z M 137 139 " clip-rule="nonzero"/></clipPath><clipPath id="d3d9cdbe6d"><path d="M 236.5 124.21875 L 271.175781 251.957031 L 138.578125 287.949219 L 103.902344 160.210938 Z M 236.5 124.21875 " clip-rule="nonzero"/></clipPath><clipPath id="8c8bc0c3b6"><path d="M 236.5 124.21875 L 271.175781 251.957031 L 138.578125 287.949219 L 103.902344 160.210938 Z M 236.5 124.21875 " clip-rule="nonzero"/></clipPath><clipPath id="e85cc7b857"><path d="M 155 143 L 232 143 L 232 207 L 155 207 Z M 155 143 " clip-rule="nonzero"/></clipPath><clipPath id="37263a4a62"><path d="M 236.5 124.21875 L 271.175781 251.957031 L 138.578125 287.949219 L 103.902344 160.210938 Z M 236.5 124.21875 " clip-rule="nonzero"/></clipPath><clipPath id="e00446a747"><path d="M 236.5 124.21875 L 271.175781 251.957031 L 138.578125 287.949219 L 103.902344 160.210938 Z M 236.5 124.21875 " clip-rule="nonzero"/></clipPath><clipPath id="c266f4998c"><path d="M 119 191 L 250 191 L 250 272 L 119 272 Z M 119 191 " clip-rule="nonzero"/></clipPath><clipPath id="aa22d3d400"><path d="M 236.5 124.21875 L 271.175781 251.957031 L 138.578125 287.949219 L 103.902344 160.210938 Z M 236.5 124.21875 " clip-rule="nonzero"/></clipPath><clipPath id="5a1d46a3ce"><path d="M 236.5 124.21875 L 271.175781 251.957031 L 138.578125 287.949219 L 103.902344 160.210938 Z M 236.5 124.21875 " clip-rule="nonzero"/></clipPath><clipPath id="a332cf7283"><path d="M 199.582031 136.097656 L 238.382812 136.097656 L 238.382812 226.558594 L 199.582031 226.558594 Z M 199.582031 136.097656 " clip-rule="nonzero"/></clipPath><clipPath id="8ae3cc3410"><path d="M 135 48.878906 L 226 48.878906 L 226 157 L 135 157 Z M 135 48.878906 " clip-rule="nonzero"/></clipPath><clipPath id="abe1a6c9a8"><path d="M 132.703125 163.335938 L 166.28125 163.335938 L 166.28125 226.558594 L 132.703125 226.558594 Z M 132.703125 163.335938 " clip-rule="nonzero"/></clipPath></defs><g clip-path="url(#9bd17d7009)"><g clip-path="url(#df690c944d)"><g clip-path="url(#8fcfaabd77)"><path fill="#ffffff" d="M 250.933594 177.570312 C 225.433594 177.695312 215.066406 165.007812 197.363281 169.8125 C 185.628906 173 177.90625 184.945312 181.050781 196.539062 C 184.199219 208.128906 196.902344 214.535156 208.636719 211.347656 C 226.339844 206.542969 228.871094 190.355469 250.933594 177.570312 " fill-opacity="1" fill-rule="nonzero"/></g></g></g><g clip-path="url(#64b5ef218a)"><g clip-path="url(#7d833d68e9)"><g clip-path="url(#50e4e2298e)"><path fill="#ffffff" d="M 174.988281 198.183594 C 170.230469 180.652344 180.738281 162.628906 197.5625 155.988281 C 195.933594 156.273438 194.296875 156.628906 192.648438 157.078125 C 173.539062 162.265625 160.957031 181.722656 166.082031 200.601562 C 171.207031 219.480469 191.898438 229.90625 211.007812 224.71875 C 212.65625 224.273438 214.25 223.753906 215.800781 223.175781 C 197.929688 225.953125 179.746094 215.714844 174.988281 198.183594 " fill-opacity="1" fill-rule="nonzero"/></g></g></g><g clip-path="url(#19a46cb746)"><g clip-path="url(#d3d9cdbe6d)"><g clip-path="url(#8c8bc0c3b6)"><path fill="#ffffff" d="M 151.503906 196.21875 C 145.09375 172.597656 159.253906 148.304688 181.921875 139.355469 C 179.726562 139.742188 177.523438 140.222656 175.300781 140.824219 C 149.550781 147.816406 132.597656 174.035156 139.503906 199.476562 C 146.410156 224.917969 174.292969 238.964844 200.042969 231.976562 C 202.265625 231.375 204.410156 230.675781 206.5 229.894531 C 182.417969 233.640625 157.917969 219.839844 151.503906 196.21875 " fill-opacity="1" fill-rule="nonzero"/></g></g></g><g clip-path="url(#e85cc7b857)"><g clip-path="url(#37263a4a62)"><g clip-path="url(#e00446a747)"><path fill="#ffffff" d="M 179.277344 155.851562 C 197 145.511719 219.441406 150.5 231.234375 166.769531 C 230.6875 165.578125 230.082031 164.40625 229.410156 163.253906 C 218.394531 144.375 194.164062 138 175.289062 149.015625 C 156.410156 160.027344 150.039062 184.257812 161.050781 203.136719 C 161.722656 204.289062 162.445312 205.394531 163.214844 206.453125 C 154.851562 188.183594 161.554688 166.191406 179.277344 155.851562 " fill-opacity="1" fill-rule="nonzero"/></g></g></g><g clip-path="url(#c266f4998c)"><g clip-path="url(#aa22d3d400)"><g clip-path="url(#5a1d46a3ce)"><path fill="#a6a6a6" d="M 198.25 271.199219 C 201.5 270.574219 204.75 269.691406 207.964844 268.546875 C 211.183594 267.402344 214.261719 266.035156 217.179688 264.46875 L 216.964844 252.582031 C 219.460938 250.914062 221.796875 249.066406 223.964844 247.058594 C 225.8125 245.34375 227.535156 243.519531 229.128906 241.589844 L 240.933594 243.019531 C 241.191406 242.632812 241.449219 242.246094 241.699219 241.851562 C 245.097656 236.585938 247.746094 230.867188 249.558594 224.863281 L 241 216.609375 C 241.476562 214.214844 243.789062 202.792969 242.988281 191.203125 C 240.167969 220.164062 215.785156 242.824219 186.074219 242.882812 C 156.367188 242.941406 131.894531 220.375 128.960938 191.425781 C 128.527344 198.925781 129.078125 208.527344 129.304688 210.917969 L 119.945312 218.257812 C 120.578125 221.507812 121.460938 224.757812 122.601562 227.96875 C 123.421875 230.273438 124.351562 232.5 125.394531 234.652344 C 125.804688 235.511719 126.234375 236.355469 126.675781 237.1875 L 138.570312 236.96875 C 140.136719 239.320312 141.867188 241.527344 143.738281 243.582031 C 145.550781 245.578125 147.503906 247.433594 149.5625 249.132812 L 148.128906 260.9375 C 152.777344 264.074219 157.796875 266.617188 163.074219 268.503906 C 164.136719 268.886719 165.203125 269.242188 166.285156 269.566406 L 174.539062 261.003906 C 179.859375 262.070312 185.371094 262.375 190.914062 261.847656 L 198.25 271.199219 " fill-opacity="1" fill-rule="nonzero"/></g></g></g><g clip-path="url(#a332cf7283)"><path fill="#1b75bb" d="M 224.476562 140.078125 L 228.75 140.078125 L 228.75 136.226562 L 199.851562 136.226562 L 199.851562 140.078125 L 206.804688 140.078125 C 217.980469 161.71875 228.902344 180.726562 228.902344 197.300781 C 228.902344 208.585938 224.585938 218.859375 217.519531 226.574219 C 230.195312 216.925781 238.382812 201.679688 238.382812 184.519531 C 238.382812 171.050781 232.460938 156.257812 224.476562 140.078125 " fill-opacity="1" fill-rule="nonzero"/></g><g clip-path="url(#8ae3cc3410)"><path fill="#26a9e0" d="M 161.046875 154.019531 L 157.039062 154.019531 C 167.390625 133.902344 180.253906 111.292969 185.542969 85.996094 C 188.519531 100.230469 193.894531 113.617188 199.871094 126.183594 L 196.347656 126.183594 L 196.347656 130.035156 L 225.246094 130.035156 L 225.246094 126.183594 L 217.382812 126.183594 C 205.355469 103.09375 191.5 77.386719 185.542969 48.882812 C 177.070312 89.410156 152.640625 124.277344 140.191406 154.019531 L 135.726562 154.019531 L 135.726562 156.863281 L 161.046875 156.863281 L 161.046875 154.019531 " fill-opacity="1" fill-rule="nonzero"/></g><path fill="#1b75bb" d="M 211.914062 181.714844 L 199.40625 181.714844 C 198.773438 181.714844 198.257812 182.230469 198.257812 182.863281 C 198.257812 183.496094 198.773438 184.011719 199.40625 184.011719 L 211.914062 184.011719 C 212.546875 184.011719 213.0625 183.496094 213.0625 182.863281 C 213.0625 182.230469 212.546875 181.714844 211.914062 181.714844 " fill-opacity="1" fill-rule="nonzero"/><path fill="#1b75bb" d="M 200.984375 180.390625 L 200.984375 180.949219 L 210.796875 180.949219 L 210.796875 179.15625 C 210.796875 175.496094 209.34375 171.984375 206.753906 169.394531 C 204.164062 166.808594 200.652344 165.351562 196.988281 165.351562 L 195.671875 165.351562 C 193.054688 165.351562 190.933594 163.234375 190.933594 160.617188 L 190.933594 158.460938 L 191.988281 158.460938 C 192.621094 158.460938 193.136719 157.949219 193.136719 157.316406 C 193.136719 156.679688 192.621094 156.167969 191.988281 156.167969 L 187.523438 156.167969 L 190.863281 155.917969 C 190.988281 155.738281 191.0625 155.523438 191.0625 155.289062 C 191.0625 154.65625 190.550781 154.140625 189.914062 154.140625 L 186.757812 154.140625 L 186.757812 149.273438 C 187.273438 148.871094 187.671875 148.328125 187.894531 147.699219 L 192.636719 148.414062 C 193.804688 148.589844 194.859375 147.683594 194.859375 146.503906 C 194.859375 145.320312 193.804688 144.410156 192.636719 144.589844 L 187.859375 145.308594 C 187.363281 144.019531 186.113281 143.105469 184.648438 143.105469 C 183.175781 143.105469 181.921875 144.03125 181.429688 145.332031 L 176.503906 144.589844 C 175.332031 144.410156 174.28125 145.320312 174.28125 146.503906 C 174.28125 147.683594 175.332031 148.589844 176.503906 148.414062 L 181.398438 147.675781 C 181.617188 148.3125 182.019531 148.867188 182.542969 149.273438 L 182.542969 154.140625 L 179.386719 154.140625 C 178.75 154.140625 178.238281 154.65625 178.238281 155.289062 C 178.238281 155.644531 178.402344 155.957031 178.652344 156.167969 L 177.441406 156.167969 C 176.804688 156.167969 176.289062 156.679688 176.289062 157.316406 C 176.289062 157.949219 176.804688 158.460938 177.441406 158.460938 L 182.652344 158.460938 L 178.589844 159.113281 L 178.589844 161.09375 C 178.589844 163.445312 176.679688 165.351562 174.328125 165.351562 L 166.816406 165.351562 L 166.816406 175.78125 L 174.855469 175.78125 C 179.734375 175.6875 180.503906 179.515625 184.808594 179.515625 C 186.65625 179.515625 188.007812 178.820312 188.953125 178.027344 C 190.769531 176.5 193.109375 175.734375 195.480469 175.734375 L 196.328125 175.734375 C 197.5625 175.734375 198.75 176.226562 199.621094 177.097656 C 200.496094 177.972656 200.984375 179.15625 200.984375 180.390625 " fill-opacity="1" fill-rule="nonzero"/><g clip-path="url(#abe1a6c9a8)"><path fill="#1b75bb" d="M 162.507812 165.351562 L 136.003906 165.351562 C 133.925781 172.019531 132.703125 178.40625 132.703125 184.519531 C 132.703125 201.679688 140.890625 216.925781 153.566406 226.574219 C 146.5 218.859375 142.183594 208.585938 142.183594 197.300781 C 142.183594 190.535156 144.003906 183.367188 146.914062 175.78125 L 162.507812 175.78125 L 162.507812 177.640625 L 166.046875 177.640625 L 166.046875 163.574219 L 162.507812 163.574219 L 162.507812 165.351562 " fill-opacity="1" fill-rule="nonzero"/></g><path fill="#26a9e0" d="M 200.933594 208.246094 C 200.863281 208.292969 200.789062 208.3125 200.710938 208.3125 C 200.574219 208.3125 200.441406 208.246094 200.363281 208.121094 C 200.355469 208.109375 200.132812 207.761719 199.882812 207.1875 C 199.789062 206.980469 199.882812 206.734375 200.09375 206.644531 C 200.300781 206.550781 200.546875 206.648438 200.636719 206.855469 C 200.863281 207.367188 201.058594 207.675781 201.058594 207.675781 C 201.179688 207.871094 201.125 208.125 200.933594 208.246094 Z M 199.5 206.261719 C 199.496094 206.246094 199.488281 206.230469 199.488281 206.210938 C 199.488281 206.210938 199.460938 206.113281 199.421875 205.941406 C 199.378906 205.761719 199.324219 205.5 199.277344 205.191406 C 199.234375 204.875 199.199219 204.511719 199.195312 204.117188 C 199.199219 203.921875 199.195312 203.71875 199.214844 203.511719 C 199.226562 203.308594 199.257812 203.101562 199.289062 202.894531 C 199.328125 202.691406 199.363281 202.484375 199.421875 202.289062 C 199.449219 202.191406 199.476562 202.09375 199.503906 201.996094 C 199.539062 201.902344 199.570312 201.8125 199.605469 201.71875 C 199.664062 201.539062 199.753906 201.371094 199.820312 201.210938 C 199.898438 201.050781 199.984375 200.90625 200.054688 200.773438 C 200.136719 200.644531 200.210938 200.527344 200.277344 200.421875 C 200.339844 200.316406 200.414062 200.234375 200.464844 200.164062 C 200.574219 200.023438 200.632812 199.941406 200.632812 199.941406 C 200.632812 199.941406 200.582031 200.03125 200.496094 200.183594 C 200.453125 200.261719 200.394531 200.347656 200.34375 200.460938 C 200.292969 200.570312 200.234375 200.695312 200.167969 200.832031 C 200.117188 200.972656 200.054688 201.121094 200 201.28125 C 199.953125 201.449219 199.886719 201.613281 199.855469 201.796875 C 199.835938 201.886719 199.8125 201.980469 199.792969 202.070312 C 199.777344 202.164062 199.765625 202.261719 199.75 202.355469 C 199.71875 202.546875 199.710938 202.742188 199.699219 202.9375 C 199.695312 203.132812 199.691406 203.328125 199.707031 203.519531 C 199.710938 203.710938 199.738281 203.898438 199.757812 204.078125 C 199.804688 204.4375 199.882812 204.769531 199.957031 205.046875 C 200.039062 205.328125 200.117188 205.546875 200.171875 205.707031 C 200.238281 205.871094 200.273438 205.964844 200.273438 205.964844 C 200.355469 206.179688 200.25 206.417969 200.039062 206.5 C 199.824219 206.582031 199.585938 206.476562 199.5 206.261719 Z M 205.660156 186.695312 C 204.140625 193.960938 198.714844 199.84375 198.714844 204.519531 C 198.714844 208.355469 201.824219 211.460938 205.660156 211.460938 C 209.496094 211.460938 212.605469 208.355469 212.605469 204.519531 C 212.605469 199.84375 207.179688 193.960938 205.660156 186.695312 " fill-opacity="1" fill-rule="nonzero"/><g fill="#a6a6a6" fill-opacity="1"><g transform="translate(81.372179, 323.630165)"><g><path d="M 1.375 0 L 1.375 -14.09375 L 6.59375 -14.09375 C 7.71875 -14.09375 8.648438 -13.90625 9.390625 -13.53125 C 10.128906 -13.15625 10.675781 -12.640625 11.03125 -11.984375 C 11.394531 -11.328125 11.578125 -10.585938 11.578125 -9.765625 C 11.578125 -8.984375 11.398438 -8.265625 11.046875 -7.609375 C 10.703125 -6.960938 10.160156 -6.441406 9.421875 -6.046875 C 8.679688 -5.648438 7.738281 -5.453125 6.59375 -5.453125 L 3.953125 -5.453125 L 3.953125 0 Z M 3.953125 -7.546875 L 6.421875 -7.546875 C 7.328125 -7.546875 7.976562 -7.742188 8.375 -8.140625 C 8.769531 -8.535156 8.96875 -9.078125 8.96875 -9.765625 C 8.96875 -10.460938 8.769531 -11.007812 8.375 -11.40625 C 7.976562 -11.800781 7.328125 -12 6.421875 -12 L 3.953125 -12 Z M 3.953125 -7.546875 "/></g></g></g><g fill="#a6a6a6" fill-opacity="1"><g transform="translate(93.59987, 323.630165)"><g><path d="M 6.8125 0.234375 C 5.769531 0.234375 4.832031 0.03125 4 -0.375 C 3.175781 -0.78125 2.515625 -1.398438 2.015625 -2.234375 C 1.523438 -3.066406 1.28125 -4.117188 1.28125 -5.390625 L 1.28125 -14.09375 L 3.859375 -14.09375 L 3.859375 -5.375 C 3.859375 -4.269531 4.125 -3.445312 4.65625 -2.90625 C 5.1875 -2.375 5.925781 -2.109375 6.875 -2.109375 C 7.789062 -2.109375 8.519531 -2.375 9.0625 -2.90625 C 9.601562 -3.445312 9.875 -4.269531 9.875 -5.375 L 9.875 -14.09375 L 12.453125 -14.09375 L 12.453125 -5.390625 C 12.453125 -4.117188 12.195312 -3.066406 11.6875 -2.234375 C 11.175781 -1.398438 10.492188 -0.78125 9.640625 -0.375 C 8.785156 0.03125 7.84375 0.234375 6.8125 0.234375 Z M 6.8125 0.234375 "/></g></g></g><g fill="#a6a6a6" fill-opacity="1"><g transform="translate(107.318245, 323.630165)"><g><path d="M 1.375 0 L 1.375 -14.09375 L 6.546875 -14.09375 C 7.671875 -14.09375 8.597656 -13.898438 9.328125 -13.515625 C 10.066406 -13.140625 10.613281 -12.625 10.96875 -11.96875 C 11.332031 -11.320312 11.515625 -10.601562 11.515625 -9.8125 C 11.515625 -8.945312 11.289062 -8.160156 10.84375 -7.453125 C 10.394531 -6.742188 9.691406 -6.226562 8.734375 -5.90625 L 11.65625 0 L 8.703125 0 L 6.078125 -5.5625 L 3.953125 -5.5625 L 3.953125 0 Z M 3.953125 -7.453125 L 6.390625 -7.453125 C 7.242188 -7.453125 7.867188 -7.660156 8.265625 -8.078125 C 8.671875 -8.492188 8.875 -9.046875 8.875 -9.734375 C 8.875 -10.398438 8.675781 -10.929688 8.28125 -11.328125 C 7.882812 -11.734375 7.242188 -11.9375 6.359375 -11.9375 L 3.953125 -11.9375 Z M 3.953125 -7.453125 "/></g></g></g><g fill="#a6a6a6" fill-opacity="1"><g transform="translate(119.868248, 323.630165)"><g><path d="M 1.375 0 L 1.375 -14.09375 L 3.953125 -14.09375 L 3.953125 0 Z M 1.375 0 "/></g></g></g><g fill="#a6a6a6" fill-opacity="1"><g transform="translate(125.186385, 323.630165)"><g><path d="M 1.375 0 L 1.375 -14.09375 L 10.46875 -14.09375 L 10.46875 -12.03125 L 3.953125 -12.03125 L 3.953125 -8.078125 L 9.21875 -8.078125 L 9.21875 -6.046875 L 3.953125 -6.046875 L 3.953125 0 Z M 1.375 0 "/></g></g></g><g fill="#a6a6a6" fill-opacity="1"><g transform="translate(136.285986, 323.630165)"><g><path d="M 1.375 0 L 1.375 -14.09375 L 3.953125 -14.09375 L 3.953125 0 Z M 1.375 0 "/></g></g></g><g fill="#a6a6a6" fill-opacity="1"><g transform="translate(141.604124, 323.630165)"><g><path d="M 7.75 0.234375 C 6.332031 0.234375 5.113281 -0.0664062 4.09375 -0.671875 C 3.070312 -1.285156 2.285156 -2.140625 1.734375 -3.234375 C 1.179688 -4.328125 0.90625 -5.59375 0.90625 -7.03125 C 0.90625 -8.46875 1.179688 -9.734375 1.734375 -10.828125 C 2.285156 -11.929688 3.070312 -12.789062 4.09375 -13.40625 C 5.113281 -14.03125 6.332031 -14.34375 7.75 -14.34375 C 9.445312 -14.34375 10.832031 -13.921875 11.90625 -13.078125 C 12.988281 -12.242188 13.664062 -11.066406 13.9375 -9.546875 L 11.09375 -9.546875 C 10.914062 -10.304688 10.539062 -10.90625 9.96875 -11.34375 C 9.40625 -11.78125 8.65625 -12 7.71875 -12 C 6.414062 -12 5.394531 -11.554688 4.65625 -10.671875 C 3.914062 -9.785156 3.546875 -8.570312 3.546875 -7.03125 C 3.546875 -5.488281 3.914062 -4.273438 4.65625 -3.390625 C 5.394531 -2.515625 6.414062 -2.078125 7.71875 -2.078125 C 8.65625 -2.078125 9.40625 -2.28125 9.96875 -2.6875 C 10.539062 -3.09375 10.914062 -3.660156 11.09375 -4.390625 L 13.9375 -4.390625 C 13.664062 -2.941406 12.988281 -1.804688 11.90625 -0.984375 C 10.832031 -0.171875 9.445312 0.234375 7.75 0.234375 Z M 7.75 0.234375 "/></g></g></g><g fill="#a6a6a6" fill-opacity="1"><g transform="translate(156.450589, 323.630165)"><g><path d="M 0.46875 0 L 5.625 -14.09375 L 8.515625 -14.09375 L 13.671875 0 L 10.9375 0 L 9.8125 -3.265625 L 4.3125 -3.265625 L 3.15625 0 Z M 5.015625 -5.28125 L 9.109375 -5.28125 L 7.046875 -11.140625 Z M 5.015625 -5.28125 "/></g></g></g><g fill="#a6a6a6" fill-opacity="1"><g transform="translate(170.571854, 323.630165)"><g><path d="M 4.65625 0 L 4.65625 -12.03125 L 0.546875 -12.03125 L 0.546875 -14.09375 L 11.359375 -14.09375 L 11.359375 -12.03125 L 7.234375 -12.03125 L 7.234375 0 Z M 4.65625 0 "/></g></g></g><g fill="#a6a6a6" fill-opacity="1"><g transform="translate(182.477233, 323.630165)"><g><path d="M 1.375 0 L 1.375 -14.09375 L 3.953125 -14.09375 L 3.953125 0 Z M 1.375 0 "/></g></g></g><g fill="#a6a6a6" fill-opacity="1"><g transform="translate(187.795371, 323.630165)"><g><path d="M 7.96875 0.234375 C 6.5625 0.234375 5.332031 -0.0703125 4.28125 -0.6875 C 3.226562 -1.300781 2.398438 -2.15625 1.796875 -3.25 C 1.203125 -4.34375 0.90625 -5.609375 0.90625 -7.046875 C 0.90625 -8.484375 1.203125 -9.75 1.796875 -10.84375 C 2.398438 -11.9375 3.226562 -12.789062 4.28125 -13.40625 C 5.332031 -14.03125 6.5625 -14.34375 7.96875 -14.34375 C 9.375 -14.34375 10.601562 -14.03125 11.65625 -13.40625 C 12.71875 -12.789062 13.546875 -11.9375 14.140625 -10.84375 C 14.734375 -9.75 15.03125 -8.484375 15.03125 -7.046875 C 15.03125 -5.609375 14.734375 -4.34375 14.140625 -3.25 C 13.546875 -2.15625 12.71875 -1.300781 11.65625 -0.6875 C 10.601562 -0.0703125 9.375 0.234375 7.96875 0.234375 Z M 7.96875 -2.078125 C 9.3125 -2.078125 10.382812 -2.519531 11.1875 -3.40625 C 11.988281 -4.289062 12.390625 -5.503906 12.390625 -7.046875 C 12.390625 -8.585938 11.988281 -9.800781 11.1875 -10.6875 C 10.382812 -11.582031 9.3125 -12.03125 7.96875 -12.03125 C 6.632812 -12.03125 5.5625 -11.582031 4.75 -10.6875 C 3.945312 -9.800781 3.546875 -8.585938 3.546875 -7.046875 C 3.546875 -5.503906 3.945312 -4.289062 4.75 -3.40625 C 5.5625 -2.519531 6.632812 -2.078125 7.96875 -2.078125 Z M 7.96875 -2.078125 "/></g></g></g><g fill="#a6a6a6" fill-opacity="1"><g transform="translate(203.729643, 323.630165)"><g><path d="M 1.375 0 L 1.375 -14.09375 L 3.953125 -14.09375 L 10.578125 -4.171875 L 10.578125 -14.09375 L 13.15625 -14.09375 L 13.15625 0 L 10.578125 0 L 3.953125 -9.90625 L 3.953125 0 Z M 1.375 0 "/></g></g></g><g fill="#a6a6a6" fill-opacity="1"><g transform="translate(218.253797, 323.630165)"><g/></g></g><g fill="#a6a6a6" fill-opacity="1"><g transform="translate(223.048184, 323.630165)"><g><path d="M 6.1875 0.234375 C 5.144531 0.234375 4.226562 0.0546875 3.4375 -0.296875 C 2.644531 -0.648438 2.019531 -1.15625 1.5625 -1.8125 C 1.113281 -2.476562 0.878906 -3.289062 0.859375 -4.25 L 3.578125 -4.25 C 3.609375 -3.59375 3.847656 -3.035156 4.296875 -2.578125 C 4.742188 -2.128906 5.363281 -1.90625 6.15625 -1.90625 C 6.84375 -1.90625 7.390625 -2.070312 7.796875 -2.40625 C 8.203125 -2.738281 8.40625 -3.175781 8.40625 -3.71875 C 8.40625 -4.300781 8.222656 -4.753906 7.859375 -5.078125 C 7.503906 -5.398438 7.03125 -5.660156 6.4375 -5.859375 C 5.851562 -6.054688 5.222656 -6.269531 4.546875 -6.5 C 3.460938 -6.875 2.632812 -7.359375 2.0625 -7.953125 C 1.488281 -8.546875 1.203125 -9.332031 1.203125 -10.3125 C 1.191406 -11.144531 1.390625 -11.859375 1.796875 -12.453125 C 2.210938 -13.054688 2.773438 -13.519531 3.484375 -13.84375 C 4.191406 -14.175781 5.007812 -14.34375 5.9375 -14.34375 C 6.875 -14.34375 7.703125 -14.171875 8.421875 -13.828125 C 9.140625 -13.492188 9.703125 -13.023438 10.109375 -12.421875 C 10.523438 -11.816406 10.75 -11.097656 10.78125 -10.265625 L 8.015625 -10.265625 C 8.003906 -10.765625 7.8125 -11.207031 7.4375 -11.59375 C 7.070312 -11.976562 6.5625 -12.171875 5.90625 -12.171875 C 5.34375 -12.179688 4.867188 -12.039062 4.484375 -11.75 C 4.097656 -11.457031 3.90625 -11.039062 3.90625 -10.5 C 3.90625 -10.019531 4.050781 -9.644531 4.34375 -9.375 C 4.644531 -9.101562 5.050781 -8.875 5.5625 -8.6875 C 6.070312 -8.5 6.65625 -8.296875 7.3125 -8.078125 C 8.007812 -7.835938 8.644531 -7.554688 9.21875 -7.234375 C 9.800781 -6.910156 10.265625 -6.484375 10.609375 -5.953125 C 10.960938 -5.421875 11.140625 -4.738281 11.140625 -3.90625 C 11.140625 -3.164062 10.953125 -2.476562 10.578125 -1.84375 C 10.203125 -1.21875 9.644531 -0.710938 8.90625 -0.328125 C 8.164062 0.046875 7.257812 0.234375 6.1875 0.234375 Z M 6.1875 0.234375 "/></g></g></g><g fill="#a6a6a6" fill-opacity="1"><g transform="translate(235.074425, 323.630165)"><g><path d="M 5.015625 0 L 5.015625 -5.015625 L 0.28125 -14.09375 L 3.203125 -14.09375 L 6.328125 -7.59375 L 9.421875 -14.09375 L 12.3125 -14.09375 L 7.59375 -5.015625 L 7.59375 0 Z M 5.015625 0 "/></g></g></g><g fill="#a6a6a6" fill-opacity="1"><g transform="translate(247.66471, 323.630165)"><g><path d="M 6.1875 0.234375 C 5.144531 0.234375 4.226562 0.0546875 3.4375 -0.296875 C 2.644531 -0.648438 2.019531 -1.15625 1.5625 -1.8125 C 1.113281 -2.476562 0.878906 -3.289062 0.859375 -4.25 L 3.578125 -4.25 C 3.609375 -3.59375 3.847656 -3.035156 4.296875 -2.578125 C 4.742188 -2.128906 5.363281 -1.90625 6.15625 -1.90625 C 6.84375 -1.90625 7.390625 -2.070312 7.796875 -2.40625 C 8.203125 -2.738281 8.40625 -3.175781 8.40625 -3.71875 C 8.40625 -4.300781 8.222656 -4.753906 7.859375 -5.078125 C 7.503906 -5.398438 7.03125 -5.660156 6.4375 -5.859375 C 5.851562 -6.054688 5.222656 -6.269531 4.546875 -6.5 C 3.460938 -6.875 2.632812 -7.359375 2.0625 -7.953125 C 1.488281 -8.546875 1.203125 -9.332031 1.203125 -10.3125 C 1.191406 -11.144531 1.390625 -11.859375 1.796875 -12.453125 C 2.210938 -13.054688 2.773438 -13.519531 3.484375 -13.84375 C 4.191406 -14.175781 5.007812 -14.34375 5.9375 -14.34375 C 6.875 -14.34375 7.703125 -14.171875 8.421875 -13.828125 C 9.140625 -13.492188 9.703125 -13.023438 10.109375 -12.421875 C 10.523438 -11.816406 10.75 -11.097656 10.78125 -10.265625 L 8.015625 -10.265625 C 8.003906 -10.765625 7.8125 -11.207031 7.4375 -11.59375 C 7.070312 -11.976562 6.5625 -12.171875 5.90625 -12.171875 C 5.34375 -12.179688 4.867188 -12.039062 4.484375 -11.75 C 4.097656 -11.457031 3.90625 -11.039062 3.90625 -10.5 C 3.90625 -10.019531 4.050781 -9.644531 4.34375 -9.375 C 4.644531 -9.101562 5.050781 -8.875 5.5625 -8.6875 C 6.070312 -8.5 6.65625 -8.296875 7.3125 -8.078125 C 8.007812 -7.835938 8.644531 -7.554688 9.21875 -7.234375 C 9.800781 -6.910156 10.265625 -6.484375 10.609375 -5.953125 C 10.960938 -5.421875 11.140625 -4.738281 11.140625 -3.90625 C 11.140625 -3.164062 10.953125 -2.476562 10.578125 -1.84375 C 10.203125 -1.21875 9.644531 -0.710938 8.90625 -0.328125 C 8.164062 0.046875 7.257812 0.234375 6.1875 0.234375 Z M 6.1875 0.234375 "/></g></g></g><g fill="#a6a6a6" fill-opacity="1"><g transform="translate(259.69095, 323.630165)"><g><path d="M 4.65625 0 L 4.65625 -12.03125 L 0.546875 -12.03125 L 0.546875 -14.09375 L 11.359375 -14.09375 L 11.359375 -12.03125 L 7.234375 -12.03125 L 7.234375 0 Z M 4.65625 0 "/></g></g></g><g fill="#a6a6a6" fill-opacity="1"><g transform="translate(271.59633, 323.630165)"><g><path d="M 1.375 0 L 1.375 -14.09375 L 10.578125 -14.09375 L 10.578125 -12.03125 L 3.953125 -12.03125 L 3.953125 -8.15625 L 9.96875 -8.15625 L 9.96875 -6.140625 L 3.953125 -6.140625 L 3.953125 -2.078125 L 10.578125 -2.078125 L 10.578125 0 Z M 1.375 0 "/></g></g></g><g fill="#a6a6a6" fill-opacity="1"><g transform="translate(283.239834, 323.630165)"><g><path d="M 1.375 0 L 1.375 -14.09375 L 4.4375 -14.09375 L 8.921875 -5.15625 L 13.359375 -14.09375 L 16.421875 -14.09375 L 16.421875 0 L 13.84375 0 L 13.84375 -9.734375 L 9.90625 -2.015625 L 7.875 -2.015625 L 3.953125 -9.734375 L 3.953125 0 Z M 1.375 0 "/></g></g></g><g fill="#1b75bb" fill-opacity="1"><g transform="translate(79.559885, 305.761562)"><g><path d="M 2.5 0 L 2.5 -25.671875 L 11.921875 -25.671875 C 13.972656 -25.671875 15.664062 -25.320312 17 -24.625 C 18.332031 -23.925781 19.328125 -22.984375 19.984375 -21.796875 C 20.640625 -20.609375 20.96875 -19.296875 20.96875 -17.859375 C 20.96875 -16.296875 20.554688 -14.863281 19.734375 -13.5625 C 18.921875 -12.269531 17.648438 -11.332031 15.921875 -10.75 L 21.234375 0 L 15.84375 0 L 11.078125 -10.125 L 7.1875 -10.125 L 7.1875 0 Z M 7.1875 -13.5625 L 11.625 -13.5625 C 13.1875 -13.5625 14.332031 -13.941406 15.0625 -14.703125 C 15.800781 -15.460938 16.171875 -16.46875 16.171875 -17.71875 C 16.171875 -18.9375 15.8125 -19.910156 15.09375 -20.640625 C 14.375 -21.378906 13.207031 -21.75 11.59375 -21.75 L 7.1875 -21.75 Z M 7.1875 -13.5625 "/></g></g></g><g fill="#1b75bb" fill-opacity="1"><g transform="translate(102.396775, 305.761562)"><g><path d="M 2.5 0 L 2.5 -25.671875 L 7.1875 -25.671875 L 7.1875 0 Z M 2.5 0 "/></g></g></g><g fill="#1b75bb" fill-opacity="1"><g transform="translate(112.074047, 305.761562)"><g><path d="M 8.46875 0 L 8.46875 -21.890625 L 0.984375 -21.890625 L 0.984375 -25.671875 L 20.6875 -25.671875 L 20.6875 -21.890625 L 13.171875 -21.890625 L 13.171875 0 Z M 8.46875 0 "/></g></g></g><g fill="#1b75bb" fill-opacity="1"><g transform="translate(133.737929, 305.761562)"><g><path d="M 14.515625 0.4375 C 11.953125 0.4375 9.707031 -0.125 7.78125 -1.25 C 5.863281 -2.375 4.363281 -3.929688 3.28125 -5.921875 C 2.195312 -7.910156 1.65625 -10.210938 1.65625 -12.828125 C 1.65625 -15.453125 2.195312 -17.757812 3.28125 -19.75 C 4.363281 -21.738281 5.863281 -23.296875 7.78125 -24.421875 C 9.707031 -25.546875 11.953125 -26.109375 14.515625 -26.109375 C 17.066406 -26.109375 19.304688 -25.546875 21.234375 -24.421875 C 23.160156 -23.296875 24.660156 -21.738281 25.734375 -19.75 C 26.816406 -17.757812 27.359375 -15.453125 27.359375 -12.828125 C 27.359375 -10.210938 26.816406 -7.910156 25.734375 -5.921875 C 24.660156 -3.929688 23.160156 -2.375 21.234375 -1.25 C 19.304688 -0.125 17.066406 0.4375 14.515625 0.4375 Z M 14.515625 -3.78125 C 16.960938 -3.78125 18.910156 -4.585938 20.359375 -6.203125 C 21.816406 -7.816406 22.546875 -10.023438 22.546875 -12.828125 C 22.546875 -15.640625 21.816406 -17.851562 20.359375 -19.46875 C 18.910156 -21.082031 16.960938 -21.890625 14.515625 -21.890625 C 12.078125 -21.890625 10.125 -21.082031 8.65625 -19.46875 C 7.1875 -17.851562 6.453125 -15.640625 6.453125 -12.828125 C 6.453125 -10.023438 7.1875 -7.816406 8.65625 -6.203125 C 10.125 -4.585938 12.078125 -3.78125 14.515625 -3.78125 Z M 14.515625 -3.78125 "/></g></g></g><g fill="#1b75bb" fill-opacity="1"><g transform="translate(162.733078, 305.761562)"><g/></g></g><g fill="#1b75bb" fill-opacity="1"><g transform="translate(171.457287, 305.761562)"><g><path d="M 7.703125 0 L 0.921875 -25.671875 L 5.9375 -25.671875 L 10.5625 -5.25 L 15.984375 -25.671875 L 21.15625 -25.671875 L 26.4375 -5.25 L 31.0625 -25.671875 L 36.125 -25.671875 L 29.15625 0 L 23.578125 0 L 18.484375 -19.03125 L 13.234375 0 Z M 7.703125 0 "/></g></g></g><g fill="#1b75bb" fill-opacity="1"><g transform="translate(208.480169, 305.761562)"><g><path d="M 0.84375 0 L 10.234375 -25.671875 L 15.515625 -25.671875 L 24.90625 0 L 19.90625 0 L 17.859375 -5.9375 L 7.84375 -5.9375 L 5.75 0 Z M 9.125 -9.609375 L 16.578125 -9.609375 L 12.828125 -20.28125 Z M 9.125 -9.609375 "/></g></g></g><g fill="#1b75bb" fill-opacity="1"><g transform="translate(234.17625, 305.761562)"><g><path d="M 8.46875 0 L 8.46875 -21.890625 L 0.984375 -21.890625 L 0.984375 -25.671875 L 20.6875 -25.671875 L 20.6875 -21.890625 L 13.171875 -21.890625 L 13.171875 0 Z M 8.46875 0 "/></g></g></g><g fill="#1b75bb" fill-opacity="1"><g transform="translate(255.840132, 305.761562)"><g><path d="M 2.5 0 L 2.5 -25.671875 L 19.25 -25.671875 L 19.25 -21.890625 L 7.1875 -21.890625 L 7.1875 -14.859375 L 18.15625 -14.859375 L 18.15625 -11.1875 L 7.1875 -11.1875 L 7.1875 -3.78125 L 19.25 -3.78125 L 19.25 0 Z M 2.5 0 "/></g></g></g><g fill="#1b75bb" fill-opacity="1"><g transform="translate(277.027494, 305.761562)"><g><path d="M 2.5 0 L 2.5 -25.671875 L 11.921875 -25.671875 C 13.972656 -25.671875 15.664062 -25.320312 17 -24.625 C 18.332031 -23.925781 19.328125 -22.984375 19.984375 -21.796875 C 20.640625 -20.609375 20.96875 -19.296875 20.96875 -17.859375 C 20.96875 -16.296875 20.554688 -14.863281 19.734375 -13.5625 C 18.921875 -12.269531 17.648438 -11.332031 15.921875 -10.75 L 21.234375 0 L 15.84375 0 L 11.078125 -10.125 L 7.1875 -10.125 L 7.1875 0 Z M 7.1875 -13.5625 L 11.625 -13.5625 C 13.1875 -13.5625 14.332031 -13.941406 15.0625 -14.703125 C 15.800781 -15.460938 16.171875 -16.46875 16.171875 -17.71875 C 16.171875 -18.9375 15.8125 -19.910156 15.09375 -20.640625 C 14.375 -21.378906 13.207031 -21.75 11.59375 -21.75 L 7.1875 -21.75 Z M 7.1875 -13.5625 "/></g></g></g><g fill="#26a9e0" fill-opacity="1"><g transform="translate(213.44249, 335.999978)"><g><path d="M 0.75 0 L 0.75 -7.09375 L 3.078125 -7.09375 C 3.640625 -7.09375 4.097656 -7 4.453125 -6.8125 C 4.804688 -6.632812 5.066406 -6.390625 5.234375 -6.078125 C 5.410156 -5.773438 5.5 -5.425781 5.5 -5.03125 C 5.5 -4.644531 5.414062 -4.296875 5.25 -3.984375 C 5.082031 -3.671875 4.816406 -3.421875 4.453125 -3.234375 C 4.097656 -3.054688 3.640625 -2.96875 3.078125 -2.96875 L 1.609375 -2.96875 L 1.609375 0 Z M 1.609375 -3.6875 L 3.0625 -3.6875 C 3.632812 -3.6875 4.039062 -3.804688 4.28125 -4.046875 C 4.519531 -4.285156 4.640625 -4.613281 4.640625 -5.03125 C 4.640625 -5.457031 4.519531 -5.789062 4.28125 -6.03125 C 4.039062 -6.269531 3.632812 -6.390625 3.0625 -6.390625 L 1.609375 -6.390625 Z M 1.609375 -3.6875 "/></g></g></g><g fill="#26a9e0" fill-opacity="1"><g transform="translate(219.311684, 335.999978)"><g><path d="M 3.3125 0.125 C 2.820312 0.125 2.378906 0.03125 1.984375 -0.15625 C 1.597656 -0.351562 1.285156 -0.65625 1.046875 -1.0625 C 0.804688 -1.46875 0.6875 -1.984375 0.6875 -2.609375 L 0.6875 -7.09375 L 1.546875 -7.09375 L 1.546875 -2.609375 C 1.546875 -1.921875 1.707031 -1.421875 2.03125 -1.109375 C 2.363281 -0.796875 2.800781 -0.640625 3.34375 -0.640625 C 3.875 -0.640625 4.300781 -0.796875 4.625 -1.109375 C 4.945312 -1.421875 5.109375 -1.921875 5.109375 -2.609375 L 5.109375 -7.09375 L 5.96875 -7.09375 L 5.96875 -2.609375 C 5.96875 -1.984375 5.847656 -1.46875 5.609375 -1.0625 C 5.367188 -0.65625 5.050781 -0.351562 4.65625 -0.15625 C 4.257812 0.03125 3.8125 0.125 3.3125 0.125 Z M 3.3125 0.125 "/></g></g></g><g fill="#26a9e0" fill-opacity="1"><g transform="translate(225.96141, 335.999978)"><g><path d="M 0.75 0 L 0.75 -7.09375 L 3.046875 -7.09375 C 3.597656 -7.09375 4.046875 -7 4.390625 -6.8125 C 4.742188 -6.632812 5.003906 -6.382812 5.171875 -6.0625 C 5.347656 -5.75 5.4375 -5.398438 5.4375 -5.015625 C 5.4375 -4.566406 5.316406 -4.164062 5.078125 -3.8125 C 4.835938 -3.457031 4.460938 -3.203125 3.953125 -3.046875 L 5.5 0 L 4.5 0 L 3.0625 -2.9375 L 1.609375 -2.9375 L 1.609375 0 Z M 1.609375 -3.59375 L 2.984375 -3.59375 C 3.523438 -3.59375 3.921875 -3.722656 4.171875 -3.984375 C 4.421875 -4.253906 4.546875 -4.597656 4.546875 -5.015625 C 4.546875 -5.429688 4.421875 -5.757812 4.171875 -6 C 3.929688 -6.25 3.53125 -6.375 2.96875 -6.375 L 1.609375 -6.375 Z M 1.609375 -3.59375 "/></g></g></g><g fill="#26a9e0" fill-opacity="1"><g transform="translate(231.972522, 335.999978)"><g><path d="M 0.75 0 L 0.75 -7.09375 L 1.609375 -7.09375 L 1.609375 0 Z M 0.75 0 "/></g></g></g><g fill="#26a9e0" fill-opacity="1"><g transform="translate(234.32426, 335.999978)"><g><path d="M 0.75 0 L 0.75 -7.09375 L 5.078125 -7.09375 L 5.078125 -6.40625 L 1.609375 -6.40625 L 1.609375 -3.90625 L 4.546875 -3.90625 L 4.546875 -3.21875 L 1.609375 -3.21875 L 1.609375 0 Z M 0.75 0 "/></g></g></g><g fill="#26a9e0" fill-opacity="1"><g transform="translate(239.737304, 335.999978)"><g><path d="M 2.515625 0 L 2.515625 -2.703125 L 0.203125 -7.09375 L 1.171875 -7.09375 L 2.9375 -3.515625 L 4.71875 -7.09375 L 5.671875 -7.09375 L 3.359375 -2.703125 L 3.359375 0 Z M 2.515625 0 "/></g></g></g><g fill="#26a9e0" fill-opacity="1"><g transform="translate(248.292746, 335.999978)"><g><path d="M 2.515625 0 L 2.515625 -2.703125 L 0.203125 -7.09375 L 1.171875 -7.09375 L 2.9375 -3.515625 L 4.71875 -7.09375 L 5.671875 -7.09375 L 3.359375 -2.703125 L 3.359375 0 Z M 2.515625 0 "/></g></g></g><g fill="#26a9e0" fill-opacity="1"><g transform="translate(254.161939, 335.999978)"><g><path d="M 3.96875 0.125 C 3.28125 0.125 2.671875 -0.0234375 2.140625 -0.328125 C 1.617188 -0.640625 1.210938 -1.070312 0.921875 -1.625 C 0.628906 -2.1875 0.484375 -2.828125 0.484375 -3.546875 C 0.484375 -4.273438 0.628906 -4.910156 0.921875 -5.453125 C 1.210938 -6.003906 1.617188 -6.4375 2.140625 -6.75 C 2.671875 -7.0625 3.28125 -7.21875 3.96875 -7.21875 C 4.675781 -7.21875 5.289062 -7.0625 5.8125 -6.75 C 6.34375 -6.4375 6.75 -6.003906 7.03125 -5.453125 C 7.320312 -4.910156 7.46875 -4.273438 7.46875 -3.546875 C 7.46875 -2.828125 7.320312 -2.1875 7.03125 -1.625 C 6.75 -1.070312 6.34375 -0.640625 5.8125 -0.328125 C 5.289062 -0.0234375 4.675781 0.125 3.96875 0.125 Z M 3.96875 -0.625 C 4.488281 -0.625 4.945312 -0.738281 5.34375 -0.96875 C 5.738281 -1.207031 6.046875 -1.546875 6.265625 -1.984375 C 6.492188 -2.421875 6.609375 -2.941406 6.609375 -3.546875 C 6.609375 -4.160156 6.492188 -4.679688 6.265625 -5.109375 C 6.046875 -5.546875 5.738281 -5.878906 5.34375 -6.109375 C 4.945312 -6.335938 4.488281 -6.453125 3.96875 -6.453125 C 3.445312 -6.453125 2.988281 -6.335938 2.59375 -6.109375 C 2.207031 -5.878906 1.898438 -5.546875 1.671875 -5.109375 C 1.453125 -4.679688 1.34375 -4.160156 1.34375 -3.546875 C 1.34375 -2.941406 1.453125 -2.421875 1.671875 -1.984375 C 1.898438 -1.546875 2.207031 -1.207031 2.59375 -0.96875 C 2.988281 -0.738281 3.445312 -0.625 3.96875 -0.625 Z M 3.96875 -0.625 "/></g></g></g><g fill="#26a9e0" fill-opacity="1"><g transform="translate(262.109174, 335.999978)"><g><path d="M 3.3125 0.125 C 2.820312 0.125 2.378906 0.03125 1.984375 -0.15625 C 1.597656 -0.351562 1.285156 -0.65625 1.046875 -1.0625 C 0.804688 -1.46875 0.6875 -1.984375 0.6875 -2.609375 L 0.6875 -7.09375 L 1.546875 -7.09375 L 1.546875 -2.609375 C 1.546875 -1.921875 1.707031 -1.421875 2.03125 -1.109375 C 2.363281 -0.796875 2.800781 -0.640625 3.34375 -0.640625 C 3.875 -0.640625 4.300781 -0.796875 4.625 -1.109375 C 4.945312 -1.421875 5.109375 -1.921875 5.109375 -2.609375 L 5.109375 -7.09375 L 5.96875 -7.09375 L 5.96875 -2.609375 C 5.96875 -1.984375 5.847656 -1.46875 5.609375 -1.0625 C 5.367188 -0.65625 5.050781 -0.351562 4.65625 -0.15625 C 4.257812 0.03125 3.8125 0.125 3.3125 0.125 Z M 3.3125 0.125 "/></g></g></g><g fill="#26a9e0" fill-opacity="1"><g transform="translate(268.758901, 335.999978)"><g><path d="M 0.75 0 L 0.75 -7.09375 L 3.046875 -7.09375 C 3.597656 -7.09375 4.046875 -7 4.390625 -6.8125 C 4.742188 -6.632812 5.003906 -6.382812 5.171875 -6.0625 C 5.347656 -5.75 5.4375 -5.398438 5.4375 -5.015625 C 5.4375 -4.566406 5.316406 -4.164062 5.078125 -3.8125 C 4.835938 -3.457031 4.460938 -3.203125 3.953125 -3.046875 L 5.5 0 L 4.5 0 L 3.0625 -2.9375 L 1.609375 -2.9375 L 1.609375 0 Z M 1.609375 -3.59375 L 2.984375 -3.59375 C 3.523438 -3.59375 3.921875 -3.722656 4.171875 -3.984375 C 4.421875 -4.253906 4.546875 -4.597656 4.546875 -5.015625 C 4.546875 -5.429688 4.421875 -5.757812 4.171875 -6 C 3.929688 -6.25 3.53125 -6.375 2.96875 -6.375 L 1.609375 -6.375 Z M 1.609375 -3.59375 "/></g></g></g><g fill="#26a9e0" fill-opacity="1"><g transform="translate(277.456261, 335.999978)"><g><path d="M 0.75 0 L 0.75 -7.09375 L 1.609375 -7.09375 L 1.609375 -0.671875 L 4.90625 -0.671875 L 4.90625 0 Z M 0.75 0 "/></g></g></g><g fill="#26a9e0" fill-opacity="1"><g transform="translate(282.778072, 335.999978)"><g><path d="M 0.75 0 L 0.75 -7.09375 L 1.609375 -7.09375 L 1.609375 0 Z M 0.75 0 "/></g></g></g><g fill="#26a9e0" fill-opacity="1"><g transform="translate(285.12981, 335.999978)"><g><path d="M 0.75 0 L 0.75 -7.09375 L 5.078125 -7.09375 L 5.078125 -6.40625 L 1.609375 -6.40625 L 1.609375 -3.90625 L 4.546875 -3.90625 L 4.546875 -3.21875 L 1.609375 -3.21875 L 1.609375 0 Z M 0.75 0 "/></g></g></g><g fill="#26a9e0" fill-opacity="1"><g transform="translate(290.542854, 335.999978)"><g><path d="M 0.75 0 L 0.75 -7.09375 L 5.140625 -7.09375 L 5.140625 -6.40625 L 1.609375 -6.40625 L 1.609375 -3.921875 L 4.84375 -3.921875 L 4.84375 -3.234375 L 1.609375 -3.234375 L 1.609375 -0.703125 L 5.140625 -0.703125 L 5.140625 0 Z M 0.75 0 "/></g></g></g><g fill="#26a9e0" fill-opacity="1"><g transform="translate(298.94625, 335.999978)"><g><path d="M 0.875 -1.96875 L 0.78125 -7.09375 L 1.703125 -7.09375 L 1.609375 -1.96875 Z M 1.265625 0.046875 C 1.097656 0.046875 0.957031 -0.00390625 0.84375 -0.109375 C 0.726562 -0.222656 0.671875 -0.363281 0.671875 -0.53125 C 0.671875 -0.6875 0.726562 -0.820312 0.84375 -0.9375 C 0.957031 -1.050781 1.097656 -1.109375 1.265625 -1.109375 C 1.429688 -1.109375 1.566406 -1.050781 1.671875 -0.9375 C 1.785156 -0.820312 1.84375 -0.6875 1.84375 -0.53125 C 1.84375 -0.363281 1.785156 -0.222656 1.671875 -0.109375 C 1.566406 -0.00390625 1.429688 0.046875 1.265625 0.046875 Z M 1.265625 0.046875 "/></g></g></g><path stroke-linecap="butt" transform="matrix(0.75, 0, 0, 0.75, 81.876086, 332.999978)" fill="none" stroke-linejoin="miter" d="M 7.498553 1.000029 L 151.498563 1.000029 " stroke="#26a9e0" stroke-width="2" stroke-opacity="1" stroke-miterlimit="4"/><path stroke-linecap="round" transform="matrix(0.75, 0, 0, 0.75, 81.876086, 332.999978)" fill-opacity="1" fill="#26a9e0" fill-rule="nonzero" stroke-linejoin="round" d="M 0.998553 1.000029 C 0.998553 -0.656221 2.342303 -1.999971 3.998553 -1.999971 C 5.654803 -1.999971 6.998553 -0.656221 6.998553 1.000029 C 6.998553 2.656279 5.654803 4.000029 3.998553 4.000029 C 2.342303 4.000029 0.998553 2.656279 0.998553 1.000029 " stroke="#26a9e0" stroke-width="2" stroke-opacity="1" stroke-miterlimit="4"/><path stroke-linecap="round" transform="matrix(0.75, 0, 0, 0.75, 81.876086, 332.999978)" fill-opacity="1" fill="#26a9e0" fill-rule="nonzero" stroke-linejoin="round" d="M 157.998563 1.000029 C 157.998563 2.656279 156.654813 4.000029 154.998563 4.000029 C 153.342313 4.000029 151.998563 2.656279 151.998563 1.000029 C 151.998563 -0.656221 153.342313 -1.999971 154.998563 -1.999971 C 156.654813 -1.999971 157.998563 -0.656221 157.998563 1.000029 " stroke="#26a9e0" stroke-width="2" stroke-opacity="1" stroke-miterlimit="4"/></svg>